<svg width="18" height="18" viewBox="0 0 18 18" fill="none" xmlns="http://www.w3.org/2000/svg">
<path d="M6.3 16.5C5.805 16.5 5.38125 16.3164 5.02875 15.9492C4.67625 15.582 4.5 15.1406 4.5 14.625C4.5 14.1094 4.67625 13.668 5.02875 13.3008C5.38125 12.9336 5.805 12.75 6.3 12.75C6.795 12.75 7.21875 12.9336 7.57125 13.3008C7.92375 13.668 8.1 14.1094 8.1 14.625C8.1 15.1406 7.92375 15.582 7.57125 15.9492C7.21875 16.3164 6.795 16.5 6.3 16.5ZM11.7 16.5C11.205 16.5 10.7813 16.3164 10.4288 15.9492C10.0763 15.582 9.9 15.1406 9.9 14.625C9.9 14.1094 10.0763 13.668 10.4288 13.3008C10.7813 12.9336 11.205 12.75 11.7 12.75C12.195 12.75 12.6188 12.9336 12.9713 13.3008C13.3238 13.668 13.5 14.1094 13.5 14.625C13.5 15.1406 13.3238 15.582 12.9713 15.9492C12.6188 16.3164 12.195 16.5 11.7 16.5ZM6.3 10.875C5.805 10.875 5.38125 10.6914 5.02875 10.3242C4.67625 9.95703 4.5 9.51562 4.5 9C4.5 8.48438 4.67625 8.04297 5.02875 7.67578C5.38125 7.30859 5.805 7.125 6.3 7.125C6.795 7.125 7.21875 7.30859 7.57125 7.67578C7.92375 8.04297 8.1 8.48438 8.1 9C8.1 9.51562 7.92375 9.95703 7.57125 10.3242C7.21875 10.6914 6.795 10.875 6.3 10.875ZM11.7 10.875C11.205 10.875 10.7813 10.6914 10.4288 10.3242C10.0763 9.95703 9.9 9.51562 9.9 9C9.9 8.48438 10.0763 8.04297 10.4288 7.67578C10.7813 7.30859 11.205 7.125 11.7 7.125C12.195 7.125 12.6188 7.30859 12.9713 7.67578C13.3238 8.04297 13.5 8.48438 13.5 9C13.5 9.51562 13.3238 9.95703 12.9713 10.3242C12.6188 10.6914 12.195 10.875 11.7 10.875ZM6.3 5.25C5.805 5.25 5.38125 5.06641 5.02875 4.69922C4.67625 4.33203 4.5 3.89062 4.5 3.375C4.5 2.85938 4.67625 2.41797 5.02875 2.05078C5.38125 1.68359 5.805 1.5 6.3 1.5C6.795 1.5 7.21875 1.68359 7.57125 2.05078C7.92375 2.41797 8.1 2.85938 8.1 3.375C8.1 3.89062 7.92375 4.33203 7.57125 4.69922C7.21875 5.06641 6.795 5.25 6.3 5.25ZM11.7 5.25C11.205 5.25 10.7813 5.06641 10.4288 4.69922C10.0763 4.33203 9.9 3.89062 9.9 3.375C9.9 2.85938 10.0763 2.41797 10.4288 2.05078C10.7813 1.68359 11.205 1.5 11.7 1.5C12.195 1.5 12.6188 1.68359 12.9713 2.05078C13.3238 2.41797 13.5 2.85938 13.5 3.375C13.5 3.89062 13.3238 4.33203 12.9713 4.69922C12.6188 5.06641 12.195 5.25 11.7 5.25Z" fill="currentColor"/>
</svg>
