<svg width="18" height="18" viewBox="-1.748 -1.748 18 18" fill="none" xmlns="http://www.w3.org/2000/svg">
<path d="M7.25195 0C8.68616 0 10.0887 0.424975 11.2812 1.22168C12.4738 2.01848 13.4032 3.15154 13.9521 4.47656C14.5011 5.80168 14.6451 7.26025 14.3652 8.66699C14.0854 10.0736 13.394 11.3658 12.3799 12.3799C11.3657 13.3939 10.0736 14.0845 8.66699 14.3643C7.26027 14.644 5.80166 14.501 4.47656 13.9521C3.15171 13.4033 2.01946 12.4735 1.22266 11.2812C0.425809 10.0887 1.21933e-05 8.68621 0 7.25195C0 6.8378 0.335873 6.50206 0.75 6.50195C1.16421 6.50195 1.5 6.83774 1.5 7.25195C1.50001 8.38951 1.83772 9.5014 2.46973 10.4473C3.10175 11.3931 3.99977 12.131 5.05078 12.5664C6.10167 13.0017 7.25839 13.1153 8.37402 12.8936C9.48969 12.6716 10.5149 12.1236 11.3193 11.3193C12.1238 10.5149 12.6716 9.48975 12.8936 8.37402C13.1155 7.25826 13.0018 6.10181 12.5664 5.05078C12.1311 3.99992 11.394 3.10174 10.4482 2.46973C9.50253 1.83788 8.3903 1.50015 7.25293 1.5C5.62962 1.50669 4.07149 2.14034 2.9043 3.26855L2.56055 3.6123H4.3623C4.77652 3.6123 5.1123 3.94809 5.1123 4.3623C5.11222 4.77644 4.77646 5.1123 4.3623 5.1123H0.75L0.673828 5.1084C0.654293 5.10642 0.635274 5.10208 0.616211 5.09863C0.61168 5.09781 0.607057 5.09758 0.602539 5.09668C0.58278 5.09273 0.564087 5.08555 0.544922 5.08008C0.517429 5.07224 0.489517 5.06572 0.462891 5.05469C0.412002 5.03354 0.364814 5.00591 0.320312 4.97461C0.285432 4.95007 0.25092 4.92376 0.219727 4.89258C0.187716 4.86056 0.159776 4.82593 0.134766 4.79004C0.104127 4.74604 0.0783773 4.69861 0.0576172 4.64844C0.0368248 4.59806 0.021064 4.54616 0.0117188 4.49316C0.00422992 4.45066 9.53184e-06 4.40695 0 4.3623V0.75C0 0.33585 0.335873 0.000102231 0.75 0C1.16421 0 1.5 0.335786 1.5 0.75V2.55176L1.86133 2.19043C3.30727 0.79265 5.23792 0.00769922 7.24902 0H7.25195ZM7.25195 2.88965C7.66617 2.88965 8.00195 3.22543 8.00195 3.63965V6.78809L10.4775 8.02637C10.8477 8.21175 10.9977 8.66189 10.8125 9.03223C10.6272 9.40247 10.177 9.55234 9.80664 9.36719L6.91699 7.92285C6.66312 7.79577 6.502 7.53587 6.50195 7.25195V3.63965C6.50195 3.22557 6.83793 2.88987 7.25195 2.88965Z" fill="currentColor"/>
</svg>
